<svg xmlns="http://www.w3.org/2000/svg" xmlns:xlink="http://www.w3.org/1999/xlink" width="750" height="175" viewBox="0 0 750 175"><defs><style>.a,.e{fill:#fff;}.a{stroke:#707070;}.b{fill:none;}.c{clip-path:url(#a);}.d{opacity:0.212;mix-blend-mode:screen;isolation:isolate;clip-path:url(#b);}</style><clipPath id="a"><rect class="a" width="750" height="175"/></clipPath><clipPath id="b"><rect class="b" width="1020.916" height="1239"/></clipPath></defs><g class="c"><g class="d" transform="translate(-240.04 -178)"><g transform="translate(0 -3538)"><path class="e" d="M0,0H2L462.486,638.142h-2Z" transform="translate(23.287 3977.445) rotate(-120)"/></g><g transform="translate(10 -3538)"><path class="e" d="M0,0H2L462.486,638.142h-2Z" transform="translate(23.287 3977.445) rotate(-120)"/></g><g transform="translate(20 -3538)"><path class="e" d="M0,0H2L462.486,638.142h-2Z" transform="translate(23.287 3977.445) rotate(-120)"/></g><g transform="translate(30 -3538)"><path class="e" d="M0,0H2L462.486,638.142h-2Z" transform="translate(23.287 3977.445) rotate(-120)"/></g><g transform="translate(40 -3538)"><path class="e" d="M0,0H2L462.486,638.142h-2Z" transform="translate(23.287 3977.445) rotate(-120)"/></g><g transform="translate(50 -3538)"><path class="e" d="M0,0H2L462.486,638.142h-2Z" transform="translate(23.287 3977.445) rotate(-120)"/></g><g transform="translate(60 -3538)"><path class="e" d="M0,0H2L462.486,638.142h-2Z" transform="translate(23.287 3977.445) rotate(-120)"/></g><g transform="translate(70 -3538)"><path class="e" d="M0,0H2L462.486,638.142h-2Z" transform="translate(23.287 3977.445) rotate(-120)"/></g><g transform="translate(80 -3538)"><path class="e" d="M0,0H2L462.486,638.142h-2Z" transform="translate(23.287 3977.445) rotate(-120)"/></g><g transform="translate(90 -3538)"><path class="e" d="M0,0H2L462.486,638.142h-2Z" transform="translate(23.287 3977.445) rotate(-120)"/></g><g transform="translate(100 -3538)"><path class="e" d="M0,0H2L462.486,638.142h-2Z" transform="translate(23.287 3977.445) rotate(-120)"/></g><g transform="translate(110 -3538)"><path class="e" d="M0,0H2L462.486,638.142h-2Z" transform="translate(23.287 3977.445) rotate(-120)"/></g><g transform="translate(120 -3538)"><path class="e" d="M0,0H2L462.486,638.142h-2Z" transform="translate(23.287 3977.445) rotate(-120)"/></g><g transform="translate(130 -3538)"><path class="e" d="M0,0H2L462.486,638.142h-2Z" transform="translate(23.287 3977.445) rotate(-120)"/></g><g transform="translate(140 -3538)"><path class="e" d="M0,0H2L462.486,638.142h-2Z" transform="translate(23.287 3977.445) rotate(-120)"/></g><g transform="translate(150 -3538)"><path class="e" d="M0,0H2L462.486,638.142h-2Z" transform="translate(23.287 3977.445) rotate(-120)"/></g><g transform="translate(160 -3538)"><path class="e" d="M0,0H2L462.486,638.142h-2Z" transform="translate(23.287 3977.445) rotate(-120)"/></g><g transform="translate(170 -3538)"><path class="e" d="M0,0H2L462.486,638.142h-2Z" transform="translate(23.287 3977.445) rotate(-120)"/></g><g transform="translate(180 -3538)"><path class="e" d="M0,0H2L462.486,638.142h-2Z" transform="translate(23.287 3977.445) rotate(-120)"/></g><g transform="translate(190 -3538)"><path class="e" d="M0,0H2L462.486,638.142h-2Z" transform="translate(23.287 3977.445) rotate(-120)"/></g><g transform="translate(200 -3538)"><path class="e" d="M0,0H2L462.486,638.142h-2Z" transform="translate(23.287 3977.445) rotate(-120)"/></g><g transform="translate(210 -3538)"><path class="e" d="M0,0H2L462.486,638.142h-2Z" transform="translate(23.287 3977.445) rotate(-120)"/></g><g transform="translate(220 -3538)"><path class="e" d="M0,0H2L462.486,638.142h-2Z" transform="translate(23.287 3977.445) rotate(-120)"/></g><g transform="translate(230 -3538)"><path class="e" d="M0,0H2L462.486,638.142h-2Z" transform="translate(23.287 3977.445) rotate(-120)"/></g><g transform="translate(240 -3538)"><path class="e" d="M0,0H2L462.486,638.142h-2Z" transform="translate(23.287 3977.445) rotate(-120)"/></g><g transform="translate(250 -3538)"><path class="e" d="M0,0H2L462.486,638.142h-2Z" transform="translate(23.287 3977.445) rotate(-120)"/></g><g transform="translate(260 -3538)"><path class="e" d="M0,0H2L462.486,638.142h-2Z" transform="translate(23.287 3977.445) rotate(-120)"/></g><g transform="translate(270 -3538)"><path class="e" d="M0,0H2L462.486,638.142h-2Z" transform="translate(23.287 3977.445) rotate(-120)"/></g><g transform="translate(280 -3538)"><path class="e" d="M0,0H2L462.486,638.142h-2Z" transform="translate(23.287 3977.445) rotate(-120)"/></g><g transform="translate(290 -3538)"><path class="e" d="M0,0H2L462.486,638.142h-2Z" transform="translate(23.287 3977.445) rotate(-120)"/></g><g transform="translate(300 -3538)"><path class="e" d="M0,0H2L462.486,638.142h-2Z" transform="translate(23.287 3977.445) rotate(-120)"/></g><g transform="translate(310 -3538)"><path class="e" d="M0,0H2L462.486,638.142h-2Z" transform="translate(23.287 3977.445) rotate(-120)"/></g><g transform="translate(320 -3538)"><path class="e" d="M0,0H2L462.486,638.142h-2Z" transform="translate(23.287 3977.445) rotate(-120)"/></g><g transform="translate(330 -3538)"><path class="e" d="M0,0H2L462.486,638.142h-2Z" transform="translate(23.287 3977.445) rotate(-120)"/></g><g transform="translate(340 -3538)"><path class="e" d="M0,0H2L462.486,638.142h-2Z" transform="translate(23.287 3977.445) rotate(-120)"/></g><g transform="translate(350 -3538)"><path class="e" d="M0,0H2L462.486,638.142h-2Z" transform="translate(23.287 3977.445) rotate(-120)"/></g><g transform="translate(360 -3538)"><path class="e" d="M0,0H2L462.486,638.142h-2Z" transform="translate(23.287 3977.445) rotate(-120)"/></g><g transform="translate(370 -3538)"><path class="e" d="M0,0H2L462.486,638.142h-2Z" transform="translate(23.287 3977.445) rotate(-120)"/></g><g transform="translate(380 -3538)"><path class="e" d="M0,0H2L462.486,638.142h-2Z" transform="translate(23.287 3977.445) rotate(-120)"/></g><g transform="translate(390 -3538)"><path class="e" d="M0,0H2L462.486,638.142h-2Z" transform="translate(23.287 3977.445) rotate(-120)"/></g><g transform="translate(400 -3538)"><path class="e" d="M0,0H2L462.486,638.142h-2Z" transform="translate(23.287 3977.445) rotate(-120)"/></g><g transform="translate(410 -3538)"><path class="e" d="M0,0H2L462.486,638.142h-2Z" transform="translate(23.287 3977.445) rotate(-120)"/></g><g transform="translate(420 -3538)"><path class="e" d="M0,0H2L462.486,638.142h-2Z" transform="translate(23.287 3977.445) rotate(-120)"/></g><g transform="translate(430 -3538)"><path class="e" d="M0,0H2L462.486,638.142h-2Z" transform="translate(23.287 3977.445) rotate(-120)"/></g><g transform="translate(440 -3538)"><path class="e" d="M0,0H2L462.486,638.142h-2Z" transform="translate(23.287 3977.445) rotate(-120)"/></g><g transform="translate(450 -3538)"><path class="e" d="M0,0H2L462.486,638.142h-2Z" transform="translate(23.287 3977.445) rotate(-120)"/></g><g transform="translate(460 -3538)"><path class="e" d="M0,0H2L462.486,638.142h-2Z" transform="translate(23.287 3977.445) rotate(-120)"/></g><g transform="translate(470 -3538)"><path class="e" d="M0,0H2L462.486,638.142h-2Z" transform="translate(23.287 3977.445) rotate(-120)"/></g><g transform="translate(480 -3538)"><path class="e" d="M0,0H2L462.486,638.142h-2Z" transform="translate(23.287 3977.445) rotate(-120)"/></g><g transform="translate(490 -3538)"><path class="e" d="M0,0H2L462.486,638.142h-2Z" transform="translate(23.287 3977.445) rotate(-120)"/></g><g transform="translate(500 -3538)"><path class="e" d="M0,0H2L462.486,638.142h-2Z" transform="translate(23.287 3977.445) rotate(-120)"/></g><g transform="translate(510 -3538)"><path class="e" d="M0,0H2L462.486,638.142h-2Z" transform="translate(23.287 3977.445) rotate(-120)"/></g><g transform="translate(520 -3538)"><path class="e" d="M0,0H2L462.486,638.142h-2Z" transform="translate(23.287 3977.445) rotate(-120)"/></g><g transform="translate(530 -3538)"><path class="e" d="M0,0H2L462.486,638.142h-2Z" transform="translate(23.287 3977.445) rotate(-120)"/></g><g transform="translate(540 -3538)"><path class="e" d="M0,0H2L462.486,638.142h-2Z" transform="translate(23.287 3977.445) rotate(-120)"/></g><g transform="translate(550 -3538)"><path class="e" d="M0,0H2L462.486,638.142h-2Z" transform="translate(23.287 3977.445) rotate(-120)"/></g><g transform="translate(560 -3538)"><path class="e" d="M0,0H2L462.486,638.142h-2Z" transform="translate(23.287 3977.445) rotate(-120)"/></g><g transform="translate(570 -3538)"><path class="e" d="M0,0H2L462.486,638.142h-2Z" transform="translate(23.287 3977.445) rotate(-120)"/></g><g transform="translate(580 -3538)"><path class="e" d="M0,0H2L462.486,638.142h-2Z" transform="translate(23.287 3977.445) rotate(-120)"/></g><g transform="translate(590 -3538)"><path class="e" d="M0,0H2L462.486,638.142h-2Z" transform="translate(23.287 3977.445) rotate(-120)"/></g><g transform="translate(600 -3538)"><path class="e" d="M0,0H2L462.486,638.142h-2Z" transform="translate(23.287 3977.445) rotate(-120)"/></g><g transform="translate(610 -3538)"><path class="e" d="M0,0H2L462.486,638.142h-2Z" transform="translate(23.287 3977.445) rotate(-120)"/></g><g transform="translate(620 -3538)"><path class="e" d="M0,0H2L462.486,638.142h-2Z" transform="translate(23.287 3977.445) rotate(-120)"/></g><g transform="translate(630 -3538)"><path class="e" d="M0,0H2L462.486,638.142h-2Z" transform="translate(23.287 3977.445) rotate(-120)"/></g><g transform="translate(640 -3538)"><path class="e" d="M0,0H2L462.486,638.142h-2Z" transform="translate(23.287 3977.445) rotate(-120)"/></g><g transform="translate(650 -3538)"><path class="e" d="M0,0H2L462.486,638.142h-2Z" transform="translate(23.287 3977.445) rotate(-120)"/></g><g transform="translate(660 -3538)"><path class="e" d="M0,0H2L462.486,638.142h-2Z" transform="translate(23.287 3977.445) rotate(-120)"/></g><g transform="translate(670 -3538)"><path class="e" d="M0,0H2L462.486,638.142h-2Z" transform="translate(23.287 3977.445) rotate(-120)"/></g><g transform="translate(680 -3538)"><path class="e" d="M0,0H2L462.486,638.142h-2Z" transform="translate(23.287 3977.445) rotate(-120)"/></g><g transform="translate(690 -3538)"><path class="e" d="M0,0H2L462.486,638.142h-2Z" transform="translate(23.287 3977.445) rotate(-120)"/></g><g transform="translate(700 -3538)"><path class="e" d="M0,0H2L462.486,638.142h-2Z" transform="translate(23.287 3977.445) rotate(-120)"/></g><g transform="translate(710 -3538)"><path class="e" d="M0,0H2L462.486,638.142h-2Z" transform="translate(23.287 3977.445) rotate(-120)"/></g><g transform="translate(720 -3538)"><path class="e" d="M0,0H2L462.486,638.142h-2Z" transform="translate(23.287 3977.445) rotate(-120)"/></g><g transform="translate(730 -3538)"><path class="e" d="M0,0H2L462.486,638.142h-2Z" transform="translate(23.287 3977.445) rotate(-120)"/></g><g transform="translate(740 -3538)"><path class="e" d="M0,0H2L462.486,638.142h-2Z" transform="translate(23.287 3977.445) rotate(-120)"/></g><g transform="translate(750 -3538)"><path class="e" d="M0,0H2L462.486,638.142h-2Z" transform="translate(23.287 3977.445) rotate(-120)"/></g><g transform="translate(760 -3538)"><path class="e" d="M0,0H2L462.486,638.142h-2Z" transform="translate(23.287 3977.445) rotate(-120)"/></g><g transform="translate(770 -3538)"><path class="e" d="M0,0H2L462.486,638.142h-2Z" transform="translate(23.287 3977.445) rotate(-120)"/></g><g transform="translate(780 -3538)"><path class="e" d="M0,0H2L462.486,638.142h-2Z" transform="translate(23.287 3977.445) rotate(-120)"/></g><g transform="translate(790 -3538)"><path class="e" d="M0,0H2L462.486,638.142h-2Z" transform="translate(23.287 3977.445) rotate(-120)"/></g><g transform="translate(800 -3538)"><path class="e" d="M0,0H2L462.486,638.142h-2Z" transform="translate(23.287 3977.445) rotate(-120)"/></g><g transform="translate(810 -3538)"><path class="e" d="M0,0H2L462.486,638.142h-2Z" transform="translate(23.287 3977.445) rotate(-120)"/></g><g transform="translate(820 -3538)"><path class="e" d="M0,0H2L462.486,638.142h-2Z" transform="translate(23.287 3977.445) rotate(-120)"/></g><g transform="translate(830 -3538)"><path class="e" d="M0,0H2L462.486,638.142h-2Z" transform="translate(23.287 3977.445) rotate(-120)"/></g><g transform="translate(840 -3538)"><path class="e" d="M0,0H2L462.486,638.142h-2Z" transform="translate(23.287 3977.445) rotate(-120)"/></g><g transform="translate(850 -3538)"><path class="e" d="M0,0H2L462.486,638.142h-2Z" transform="translate(23.287 3977.445) rotate(-120)"/></g><g transform="translate(860 -3538)"><path class="e" d="M0,0H2L462.486,638.142h-2Z" transform="translate(23.287 3977.445) rotate(-120)"/></g><g transform="translate(870 -3538)"><path class="e" d="M0,0H2L462.486,638.142h-2Z" transform="translate(23.287 3977.445) rotate(-120)"/></g><g transform="translate(880 -3538)"><path class="e" d="M0,0H2L462.486,638.142h-2Z" transform="translate(23.287 3977.445) rotate(-120)"/></g><g transform="translate(890 -3538)"><path class="e" d="M0,0H2L462.486,638.142h-2Z" transform="translate(23.287 3977.445) rotate(-120)"/></g><g transform="translate(900 -3538)"><path class="e" d="M0,0H2L462.486,638.142h-2Z" transform="translate(23.287 3977.445) rotate(-120)"/></g><g transform="translate(910 -3538)"><path class="e" d="M0,0H2L462.486,638.142h-2Z" transform="translate(23.287 3977.445) rotate(-120)"/></g><g transform="translate(920 -3538)"><path class="e" d="M0,0H2L462.486,638.142h-2Z" transform="translate(23.287 3977.445) rotate(-120)"/></g><g transform="translate(930 -3538)"><path class="e" d="M0,0H2L462.486,638.142h-2Z" transform="translate(23.287 3977.445) rotate(-120)"/></g><g transform="translate(940 -3538)"><path class="e" d="M0,0H2L462.486,638.142h-2Z" transform="translate(23.287 3977.445) rotate(-120)"/></g><g transform="translate(950 -3538)"><path class="e" d="M0,0H2L462.486,638.142h-2Z" transform="translate(23.287 3977.445) rotate(-120)"/></g><g transform="translate(960 -3538)"><path class="e" d="M0,0H2L462.486,638.142h-2Z" transform="translate(23.287 3977.445) rotate(-120)"/></g><g transform="translate(970 -3538)"><path class="e" d="M0,0H2L462.486,638.142h-2Z" transform="translate(23.287 3977.445) rotate(-120)"/></g><g transform="translate(980 -3538)"><path class="e" d="M0,0H2L462.486,638.142h-2Z" transform="translate(23.287 3977.445) rotate(-120)"/></g><g transform="translate(990 -3538)"><path class="e" d="M0,0H2L462.486,638.142h-2Z" transform="translate(23.287 3977.445) rotate(-120)"/></g><g transform="translate(1000 -3538)"><path class="e" d="M0,0H2L462.486,638.142h-2Z" transform="translate(23.287 3977.445) rotate(-120)"/></g><g transform="translate(1010 -3538)"><path class="e" d="M0,0H2L462.486,638.142h-2Z" transform="translate(23.287 3977.445) rotate(-120)"/></g><g transform="translate(1020 -3538)"><path class="e" d="M0,0H2L462.486,638.142h-2Z" transform="translate(23.287 3977.445) rotate(-120)"/></g><g transform="translate(0 -3092)"><path class="e" d="M0,0H2L462.486,638.142h-2Z" transform="translate(23.287 3977.445) rotate(-120)"/></g><g transform="translate(10 -3092)"><path class="e" d="M0,0H2L462.486,638.142h-2Z" transform="translate(23.287 3977.445) rotate(-120)"/></g><g transform="translate(20 -3092)"><path class="e" d="M0,0H2L462.486,638.142h-2Z" transform="translate(23.287 3977.445) rotate(-120)"/></g><g transform="translate(30 -3092)"><path class="e" d="M0,0H2L462.486,638.142h-2Z" transform="translate(23.287 3977.445) rotate(-120)"/></g><g transform="translate(40 -3092)"><path class="e" d="M0,0H2L462.486,638.142h-2Z" transform="translate(23.287 3977.445) rotate(-120)"/></g><g transform="translate(50 -3092)"><path class="e" d="M0,0H2L462.486,638.142h-2Z" transform="translate(23.287 3977.445) rotate(-120)"/></g><g transform="translate(60 -3092)"><path class="e" d="M0,0H2L462.486,638.142h-2Z" transform="translate(23.287 3977.445) rotate(-120)"/></g><g transform="translate(70 -3092)"><path class="e" d="M0,0H2L462.486,638.142h-2Z" transform="translate(23.287 3977.445) rotate(-120)"/></g><g transform="translate(80 -3092)"><path class="e" d="M0,0H2L462.486,638.142h-2Z" transform="translate(23.287 3977.445) rotate(-120)"/></g><g transform="translate(90 -3092)"><path class="e" d="M0,0H2L462.486,638.142h-2Z" transform="translate(23.287 3977.445) rotate(-120)"/></g><g transform="translate(100 -3092)"><path class="e" d="M0,0H2L462.486,638.142h-2Z" transform="translate(23.287 3977.445) rotate(-120)"/></g><g transform="translate(110 -3092)"><path class="e" d="M0,0H2L462.486,638.142h-2Z" transform="translate(23.287 3977.445) rotate(-120)"/></g><g transform="translate(120 -3092)"><path class="e" d="M0,0H2L462.486,638.142h-2Z" transform="translate(23.287 3977.445) rotate(-120)"/></g><g transform="translate(130 -3092)"><path class="e" d="M0,0H2L462.486,638.142h-2Z" transform="translate(23.287 3977.445) rotate(-120)"/></g><g transform="translate(140 -3092)"><path class="e" d="M0,0H2L462.486,638.142h-2Z" transform="translate(23.287 3977.445) rotate(-120)"/></g><g transform="translate(150 -3092)"><path class="e" d="M0,0H2L462.486,638.142h-2Z" transform="translate(23.287 3977.445) rotate(-120)"/></g><g transform="translate(160 -3092)"><path class="e" d="M0,0H2L462.486,638.142h-2Z" transform="translate(23.287 3977.445) rotate(-120)"/></g><g transform="translate(170 -3092)"><path class="e" d="M0,0H2L462.486,638.142h-2Z" transform="translate(23.287 3977.445) rotate(-120)"/></g><g transform="translate(180 -3092)"><path class="e" d="M0,0H2L462.486,638.142h-2Z" transform="translate(23.287 3977.445) rotate(-120)"/></g><g transform="translate(190 -3092)"><path class="e" d="M0,0H2L462.486,638.142h-2Z" transform="translate(23.287 3977.445) rotate(-120)"/></g><g transform="translate(200 -3092)"><path class="e" d="M0,0H2L462.486,638.142h-2Z" transform="translate(23.287 3977.445) rotate(-120)"/></g><g transform="translate(210 -3092)"><path class="e" d="M0,0H2L462.486,638.142h-2Z" transform="translate(23.287 3977.445) rotate(-120)"/></g><g transform="translate(220 -3092)"><path class="e" d="M0,0H2L462.486,638.142h-2Z" transform="translate(23.287 3977.445) rotate(-120)"/></g><g transform="translate(230 -3092)"><path class="e" d="M0,0H2L462.486,638.142h-2Z" transform="translate(23.287 3977.445) rotate(-120)"/></g><g transform="translate(240 -3092)"><path class="e" d="M0,0H2L462.486,638.142h-2Z" transform="translate(23.287 3977.445) rotate(-120)"/></g><g transform="translate(250 -3092)"><path class="e" d="M0,0H2L462.486,638.142h-2Z" transform="translate(23.287 3977.445) rotate(-120)"/></g><g transform="translate(260 -3092)"><path class="e" d="M0,0H2L462.486,638.142h-2Z" transform="translate(23.287 3977.445) rotate(-120)"/></g><g transform="translate(270 -3092)"><path class="e" d="M0,0H2L462.486,638.142h-2Z" transform="translate(23.287 3977.445) rotate(-120)"/></g><g transform="translate(280 -3092)"><path class="e" d="M0,0H2L462.486,638.142h-2Z" transform="translate(23.287 3977.445) rotate(-120)"/></g><g transform="translate(290 -3092)"><path class="e" d="M0,0H2L462.486,638.142h-2Z" transform="translate(23.287 3977.445) rotate(-120)"/></g><g transform="translate(300 -3092)"><path class="e" d="M0,0H2L462.486,638.142h-2Z" transform="translate(23.287 3977.445) rotate(-120)"/></g><g transform="translate(310 -3092)"><path class="e" d="M0,0H2L462.486,638.142h-2Z" transform="translate(23.287 3977.445) rotate(-120)"/></g><g transform="translate(320 -3092)"><path class="e" d="M0,0H2L462.486,638.142h-2Z" transform="translate(23.287 3977.445) rotate(-120)"/></g><g transform="translate(330 -3092)"><path class="e" d="M0,0H2L462.486,638.142h-2Z" transform="translate(23.287 3977.445) rotate(-120)"/></g><g transform="translate(340 -3092)"><path class="e" d="M0,0H2L462.486,638.142h-2Z" transform="translate(23.287 3977.445) rotate(-120)"/></g><g transform="translate(350 -3092)"><path class="e" d="M0,0H2L462.486,638.142h-2Z" transform="translate(23.287 3977.445) rotate(-120)"/></g><g transform="translate(360 -3092)"><path class="e" d="M0,0H2L462.486,638.142h-2Z" transform="translate(23.287 3977.445) rotate(-120)"/></g><g transform="translate(370 -3092)"><path class="e" d="M0,0H2L462.486,638.142h-2Z" transform="translate(23.287 3977.445) rotate(-120)"/></g><g transform="translate(380 -3092)"><path class="e" d="M0,0H2L462.486,638.142h-2Z" transform="translate(23.287 3977.445) rotate(-120)"/></g><g transform="translate(390 -3092)"><path class="e" d="M0,0H2L462.486,638.142h-2Z" transform="translate(23.287 3977.445) rotate(-120)"/></g><g transform="translate(400 -3092)"><path class="e" d="M0,0H2L462.486,638.142h-2Z" transform="translate(23.287 3977.445) rotate(-120)"/></g><g transform="translate(410 -3092)"><path class="e" d="M0,0H2L462.486,638.142h-2Z" transform="translate(23.287 3977.445) rotate(-120)"/></g><g transform="translate(420 -3092)"><path class="e" d="M0,0H2L462.486,638.142h-2Z" transform="translate(23.287 3977.445) rotate(-120)"/></g><g transform="translate(430 -3092)"><path class="e" d="M0,0H2L462.486,638.142h-2Z" transform="translate(23.287 3977.445) rotate(-120)"/></g><g transform="translate(440 -3092)"><path class="e" d="M0,0H2L462.486,638.142h-2Z" transform="translate(23.287 3977.445) rotate(-120)"/></g><g transform="translate(450 -3092)"><path class="e" d="M0,0H2L462.486,638.142h-2Z" transform="translate(23.287 3977.445) rotate(-120)"/></g><g transform="translate(460 -3092)"><path class="e" d="M0,0H2L462.486,638.142h-2Z" transform="translate(23.287 3977.445) rotate(-120)"/></g><g transform="translate(470 -3092)"><path class="e" d="M0,0H2L462.486,638.142h-2Z" transform="translate(23.287 3977.445) rotate(-120)"/></g><g transform="translate(480 -3092)"><path class="e" d="M0,0H2L462.486,638.142h-2Z" transform="translate(23.287 3977.445) rotate(-120)"/></g><g transform="translate(490 -3092)"><path class="e" d="M0,0H2L462.486,638.142h-2Z" transform="translate(23.287 3977.445) rotate(-120)"/></g><g transform="translate(500 -3092)"><path class="e" d="M0,0H2L462.486,638.142h-2Z" transform="translate(23.287 3977.445) rotate(-120)"/></g><g transform="translate(510 -3092)"><path class="e" d="M0,0H2L462.486,638.142h-2Z" transform="translate(23.287 3977.445) rotate(-120)"/></g><g transform="translate(520 -3092)"><path class="e" d="M0,0H2L462.486,638.142h-2Z" transform="translate(23.287 3977.445) rotate(-120)"/></g><g transform="translate(530 -3092)"><path class="e" d="M0,0H2L462.486,638.142h-2Z" transform="translate(23.287 3977.445) rotate(-120)"/></g><g transform="translate(540 -3092)"><path class="e" d="M0,0H2L462.486,638.142h-2Z" transform="translate(23.287 3977.445) rotate(-120)"/></g><g transform="translate(550 -3092)"><path class="e" d="M0,0H2L462.486,638.142h-2Z" transform="translate(23.287 3977.445) rotate(-120)"/></g><g transform="translate(560 -3092)"><path class="e" d="M0,0H2L462.486,638.142h-2Z" transform="translate(23.287 3977.445) rotate(-120)"/></g><g transform="translate(570 -3092)"><path class="e" d="M0,0H2L462.486,638.142h-2Z" transform="translate(23.287 3977.445) rotate(-120)"/></g><g transform="translate(580 -3092)"><path class="e" d="M0,0H2L462.486,638.142h-2Z" transform="translate(23.287 3977.445) rotate(-120)"/></g><g transform="translate(590 -3092)"><path class="e" d="M0,0H2L462.486,638.142h-2Z" transform="translate(23.287 3977.445) rotate(-120)"/></g><g transform="translate(600 -3092)"><path class="e" d="M0,0H2L462.486,638.142h-2Z" transform="translate(23.287 3977.445) rotate(-120)"/></g><g transform="translate(610 -3092)"><path class="e" d="M0,0H2L462.486,638.142h-2Z" transform="translate(23.287 3977.445) rotate(-120)"/></g><g transform="translate(620 -3092)"><path class="e" d="M0,0H2L462.486,638.142h-2Z" transform="translate(23.287 3977.445) rotate(-120)"/></g><g transform="translate(630 -3092)"><path class="e" d="M0,0H2L462.486,638.142h-2Z" transform="translate(23.287 3977.445) rotate(-120)"/></g><g transform="translate(640 -3092)"><path class="e" d="M0,0H2L462.486,638.142h-2Z" transform="translate(23.287 3977.445) rotate(-120)"/></g><g transform="translate(650 -3092)"><path class="e" d="M0,0H2L462.486,638.142h-2Z" transform="translate(23.287 3977.445) rotate(-120)"/></g><g transform="translate(660 -3092)"><path class="e" d="M0,0H2L462.486,638.142h-2Z" transform="translate(23.287 3977.445) rotate(-120)"/></g><g transform="translate(670 -3092)"><path class="e" d="M0,0H2L462.486,638.142h-2Z" transform="translate(23.287 3977.445) rotate(-120)"/></g><g transform="translate(680 -3092)"><path class="e" d="M0,0H2L462.486,638.142h-2Z" transform="translate(23.287 3977.445) rotate(-120)"/></g><g transform="translate(690 -3092)"><path class="e" d="M0,0H2L462.486,638.142h-2Z" transform="translate(23.287 3977.445) rotate(-120)"/></g><g transform="translate(700 -3092)"><path class="e" d="M0,0H2L462.486,638.142h-2Z" transform="translate(23.287 3977.445) rotate(-120)"/></g><g transform="translate(710 -3092)"><path class="e" d="M0,0H2L462.486,638.142h-2Z" transform="translate(23.287 3977.445) rotate(-120)"/></g><g transform="translate(720 -3092)"><path class="e" d="M0,0H2L462.486,638.142h-2Z" transform="translate(23.287 3977.445) rotate(-120)"/></g><g transform="translate(730 -3092)"><path class="e" d="M0,0H2L462.486,638.142h-2Z" transform="translate(23.287 3977.445) rotate(-120)"/></g><g transform="translate(740 -3092)"><path class="e" d="M0,0H2L462.486,638.142h-2Z" transform="translate(23.287 3977.445) rotate(-120)"/></g><g transform="translate(750 -3092)"><path class="e" d="M0,0H2L462.486,638.142h-2Z" transform="translate(23.287 3977.445) rotate(-120)"/></g><g transform="translate(760 -3092)"><path class="e" d="M0,0H2L462.486,638.142h-2Z" transform="translate(23.287 3977.445) rotate(-120)"/></g><g transform="translate(770 -3092)"><path class="e" d="M0,0H2L462.486,638.142h-2Z" transform="translate(23.287 3977.445) rotate(-120)"/></g><g transform="translate(780 -3092)"><path class="e" d="M0,0H2L462.486,638.142h-2Z" transform="translate(23.287 3977.445) rotate(-120)"/></g><g transform="translate(790 -3092)"><path class="e" d="M0,0H2L462.486,638.142h-2Z" transform="translate(23.287 3977.445) rotate(-120)"/></g><g transform="translate(800 -3092)"><path class="e" d="M0,0H2L462.486,638.142h-2Z" transform="translate(23.287 3977.445) rotate(-120)"/></g><g transform="translate(810 -3092)"><path class="e" d="M0,0H2L462.486,638.142h-2Z" transform="translate(23.287 3977.445) rotate(-120)"/></g><g transform="translate(820 -3092)"><path class="e" d="M0,0H2L462.486,638.142h-2Z" transform="translate(23.287 3977.445) rotate(-120)"/></g><g transform="translate(830 -3092)"><path class="e" d="M0,0H2L462.486,638.142h-2Z" transform="translate(23.287 3977.445) rotate(-120)"/></g><g transform="translate(840 -3092)"><path class="e" d="M0,0H2L462.486,638.142h-2Z" transform="translate(23.287 3977.445) rotate(-120)"/></g><g transform="translate(850 -3092)"><path class="e" d="M0,0H2L462.486,638.142h-2Z" transform="translate(23.287 3977.445) rotate(-120)"/></g><g transform="translate(860 -3092)"><path class="e" d="M0,0H2L462.486,638.142h-2Z" transform="translate(23.287 3977.445) rotate(-120)"/></g><g transform="translate(870 -3092)"><path class="e" d="M0,0H2L462.486,638.142h-2Z" transform="translate(23.287 3977.445) rotate(-120)"/></g><g transform="translate(880 -3092)"><path class="e" d="M0,0H2L462.486,638.142h-2Z" transform="translate(23.287 3977.445) rotate(-120)"/></g><g transform="translate(890 -3092)"><path class="e" d="M0,0H2L462.486,638.142h-2Z" transform="translate(23.287 3977.445) rotate(-120)"/></g><g transform="translate(900 -3092)"><path class="e" d="M0,0H2L462.486,638.142h-2Z" transform="translate(23.287 3977.445) rotate(-120)"/></g><g transform="translate(910 -3092)"><path class="e" d="M0,0H2L462.486,638.142h-2Z" transform="translate(23.287 3977.445) rotate(-120)"/></g><g transform="translate(920 -3092)"><path class="e" d="M0,0H2L462.486,638.142h-2Z" transform="translate(23.287 3977.445) rotate(-120)"/></g><g transform="translate(930 -3092)"><path class="e" d="M0,0H2L462.486,638.142h-2Z" transform="translate(23.287 3977.445) rotate(-120)"/></g><g transform="translate(940 -3092)"><path class="e" d="M0,0H2L462.486,638.142h-2Z" transform="translate(23.287 3977.445) rotate(-120)"/></g><g transform="translate(950 -3092)"><path class="e" d="M0,0H2L462.486,638.142h-2Z" transform="translate(23.287 3977.445) rotate(-120)"/></g><g transform="translate(960 -3092)"><path class="e" d="M0,0H2L462.486,638.142h-2Z" transform="translate(23.287 3977.445) rotate(-120)"/></g><g transform="translate(970 -3092)"><path class="e" d="M0,0H2L462.486,638.142h-2Z" transform="translate(23.287 3977.445) rotate(-120)"/></g><g transform="translate(980 -3092)"><path class="e" d="M0,0H2L462.486,638.142h-2Z" transform="translate(23.287 3977.445) rotate(-120)"/></g><g transform="translate(990 -3092)"><path class="e" d="M0,0H2L462.486,638.142h-2Z" transform="translate(23.287 3977.445) rotate(-120)"/></g><g transform="translate(1000 -3092)"><path class="e" d="M0,0H2L462.486,638.142h-2Z" transform="translate(23.287 3977.445) rotate(-120)"/></g><g transform="translate(1010 -3092)"><path class="e" d="M0,0H2L462.486,638.142h-2Z" transform="translate(23.287 3977.445) rotate(-120)"/></g><g transform="translate(1020 -3092)"><path class="e" d="M0,0H2L462.486,638.142h-2Z" transform="translate(23.287 3977.445) rotate(-120)"/></g><g transform="translate(0 -2646)"><path class="e" d="M0,0H2L462.486,638.142h-2Z" transform="translate(23.287 3977.445) rotate(-120)"/></g><g transform="translate(10 -2646)"><path class="e" d="M0,0H2L462.486,638.142h-2Z" transform="translate(23.287 3977.445) rotate(-120)"/></g><g transform="translate(20 -2646)"><path class="e" d="M0,0H2L462.486,638.142h-2Z" transform="translate(23.287 3977.445) rotate(-120)"/></g><g transform="translate(30 -2646)"><path class="e" d="M0,0H2L462.486,638.142h-2Z" transform="translate(23.287 3977.445) rotate(-120)"/></g><g transform="translate(40 -2646)"><path class="e" d="M0,0H2L462.486,638.142h-2Z" transform="translate(23.287 3977.445) rotate(-120)"/></g><g transform="translate(50 -2646)"><path class="e" d="M0,0H2L462.486,638.142h-2Z" transform="translate(23.287 3977.445) rotate(-120)"/></g><g transform="translate(60 -2646)"><path class="e" d="M0,0H2L462.486,638.142h-2Z" transform="translate(23.287 3977.445) rotate(-120)"/></g><g transform="translate(70 -2646)"><path class="e" d="M0,0H2L462.486,638.142h-2Z" transform="translate(23.287 3977.445) rotate(-120)"/></g><g transform="translate(80 -2646)"><path class="e" d="M0,0H2L462.486,638.142h-2Z" transform="translate(23.287 3977.445) rotate(-120)"/></g><g transform="translate(90 -2646)"><path class="e" d="M0,0H2L462.486,638.142h-2Z" transform="translate(23.287 3977.445) rotate(-120)"/></g><g transform="translate(100 -2646)"><path class="e" d="M0,0H2L462.486,638.142h-2Z" transform="translate(23.287 3977.445) rotate(-120)"/></g><g transform="translate(110 -2646)"><path class="e" d="M0,0H2L462.486,638.142h-2Z" transform="translate(23.287 3977.445) rotate(-120)"/></g><g transform="translate(120 -2646)"><path class="e" d="M0,0H2L462.486,638.142h-2Z" transform="translate(23.287 3977.445) rotate(-120)"/></g><g transform="translate(130 -2646)"><path class="e" d="M0,0H2L462.486,638.142h-2Z" transform="translate(23.287 3977.445) rotate(-120)"/></g><g transform="translate(140 -2646)"><path class="e" d="M0,0H2L462.486,638.142h-2Z" transform="translate(23.287 3977.445) rotate(-120)"/></g><g transform="translate(150 -2646)"><path class="e" d="M0,0H2L462.486,638.142h-2Z" transform="translate(23.287 3977.445) rotate(-120)"/></g><g transform="translate(160 -2646)"><path class="e" d="M0,0H2L462.486,638.142h-2Z" transform="translate(23.287 3977.445) rotate(-120)"/></g><g transform="translate(170 -2646)"><path class="e" d="M0,0H2L462.486,638.142h-2Z" transform="translate(23.287 3977.445) rotate(-120)"/></g><g transform="translate(180 -2646)"><path class="e" d="M0,0H2L462.486,638.142h-2Z" transform="translate(23.287 3977.445) rotate(-120)"/></g><g transform="translate(190 -2646)"><path class="e" d="M0,0H2L462.486,638.142h-2Z" transform="translate(23.287 3977.445) rotate(-120)"/></g><g transform="translate(200 -2646)"><path class="e" d="M0,0H2L462.486,638.142h-2Z" transform="translate(23.287 3977.445) rotate(-120)"/></g><g transform="translate(210 -2646)"><path class="e" d="M0,0H2L462.486,638.142h-2Z" transform="translate(23.287 3977.445) rotate(-120)"/></g><g transform="translate(220 -2646)"><path class="e" d="M0,0H2L462.486,638.142h-2Z" transform="translate(23.287 3977.445) rotate(-120)"/></g><g transform="translate(230 -2646)"><path class="e" d="M0,0H2L462.486,638.142h-2Z" transform="translate(23.287 3977.445) rotate(-120)"/></g><g transform="translate(240 -2646)"><path class="e" d="M0,0H2L462.486,638.142h-2Z" transform="translate(23.287 3977.445) rotate(-120)"/></g><g transform="translate(250 -2646)"><path class="e" d="M0,0H2L462.486,638.142h-2Z" transform="translate(23.287 3977.445) rotate(-120)"/></g><g transform="translate(260 -2646)"><path class="e" d="M0,0H2L462.486,638.142h-2Z" transform="translate(23.287 3977.445) rotate(-120)"/></g><g transform="translate(270 -2646)"><path class="e" d="M0,0H2L462.486,638.142h-2Z" transform="translate(23.287 3977.445) rotate(-120)"/></g><g transform="translate(280 -2646)"><path class="e" d="M0,0H2L462.486,638.142h-2Z" transform="translate(23.287 3977.445) rotate(-120)"/></g><g transform="translate(290 -2646)"><path class="e" d="M0,0H2L462.486,638.142h-2Z" transform="translate(23.287 3977.445) rotate(-120)"/></g><g transform="translate(300 -2646)"><path class="e" d="M0,0H2L462.486,638.142h-2Z" transform="translate(23.287 3977.445) rotate(-120)"/></g><g transform="translate(310 -2646)"><path class="e" d="M0,0H2L462.486,638.142h-2Z" transform="translate(23.287 3977.445) rotate(-120)"/></g><g transform="translate(320 -2646)"><path class="e" d="M0,0H2L462.486,638.142h-2Z" transform="translate(23.287 3977.445) rotate(-120)"/></g><g transform="translate(330 -2646)"><path class="e" d="M0,0H2L462.486,638.142h-2Z" transform="translate(23.287 3977.445) rotate(-120)"/></g><g transform="translate(340 -2646)"><path class="e" d="M0,0H2L462.486,638.142h-2Z" transform="translate(23.287 3977.445) rotate(-120)"/></g><g transform="translate(350 -2646)"><path class="e" d="M0,0H2L462.486,638.142h-2Z" transform="translate(23.287 3977.445) rotate(-120)"/></g><g transform="translate(360 -2646)"><path class="e" d="M0,0H2L462.486,638.142h-2Z" transform="translate(23.287 3977.445) rotate(-120)"/></g><g transform="translate(370 -2646)"><path class="e" d="M0,0H2L462.486,638.142h-2Z" transform="translate(23.287 3977.445) rotate(-120)"/></g><g transform="translate(380 -2646)"><path class="e" d="M0,0H2L462.486,638.142h-2Z" transform="translate(23.287 3977.445) rotate(-120)"/></g><g transform="translate(390 -2646)"><path class="e" d="M0,0H2L462.486,638.142h-2Z" transform="translate(23.287 3977.445) rotate(-120)"/></g><g transform="translate(400 -2646)"><path class="e" d="M0,0H2L462.486,638.142h-2Z" transform="translate(23.287 3977.445) rotate(-120)"/></g><g transform="translate(410 -2646)"><path class="e" d="M0,0H2L462.486,638.142h-2Z" transform="translate(23.287 3977.445) rotate(-120)"/></g><g transform="translate(420 -2646)"><path class="e" d="M0,0H2L462.486,638.142h-2Z" transform="translate(23.287 3977.445) rotate(-120)"/></g><g transform="translate(430 -2646)"><path class="e" d="M0,0H2L462.486,638.142h-2Z" transform="translate(23.287 3977.445) rotate(-120)"/></g><g transform="translate(440 -2646)"><path class="e" d="M0,0H2L462.486,638.142h-2Z" transform="translate(23.287 3977.445) rotate(-120)"/></g><g transform="translate(450 -2646)"><path class="e" d="M0,0H2L462.486,638.142h-2Z" transform="translate(23.287 3977.445) rotate(-120)"/></g><g transform="translate(460 -2646)"><path class="e" d="M0,0H2L462.486,638.142h-2Z" transform="translate(23.287 3977.445) rotate(-120)"/></g><g transform="translate(470 -2646)"><path class="e" d="M0,0H2L462.486,638.142h-2Z" transform="translate(23.287 3977.445) rotate(-120)"/></g><g transform="translate(480 -2646)"><path class="e" d="M0,0H2L462.486,638.142h-2Z" transform="translate(23.287 3977.445) rotate(-120)"/></g><g transform="translate(490 -2646)"><path class="e" d="M0,0H2L462.486,638.142h-2Z" transform="translate(23.287 3977.445) rotate(-120)"/></g><g transform="translate(500 -2646)"><path class="e" d="M0,0H2L462.486,638.142h-2Z" transform="translate(23.287 3977.445) rotate(-120)"/></g><g transform="translate(510 -2646)"><path class="e" d="M0,0H2L462.486,638.142h-2Z" transform="translate(23.287 3977.445) rotate(-120)"/></g><g transform="translate(520 -2646)"><path class="e" d="M0,0H2L462.486,638.142h-2Z" transform="translate(23.287 3977.445) rotate(-120)"/></g><g transform="translate(530 -2646)"><path class="e" d="M0,0H2L462.486,638.142h-2Z" transform="translate(23.287 3977.445) rotate(-120)"/></g><g transform="translate(540 -2646)"><path class="e" d="M0,0H2L462.486,638.142h-2Z" transform="translate(23.287 3977.445) rotate(-120)"/></g><g transform="translate(550 -2646)"><path class="e" d="M0,0H2L462.486,638.142h-2Z" transform="translate(23.287 3977.445) rotate(-120)"/></g><g transform="translate(560 -2646)"><path class="e" d="M0,0H2L462.486,638.142h-2Z" transform="translate(23.287 3977.445) rotate(-120)"/></g><g transform="translate(570 -2646)"><path class="e" d="M0,0H2L462.486,638.142h-2Z" transform="translate(23.287 3977.445) rotate(-120)"/></g><g transform="translate(580 -2646)"><path class="e" d="M0,0H2L462.486,638.142h-2Z" transform="translate(23.287 3977.445) rotate(-120)"/></g><g transform="translate(590 -2646)"><path class="e" d="M0,0H2L462.486,638.142h-2Z" transform="translate(23.287 3977.445) rotate(-120)"/></g><g transform="translate(600 -2646)"><path class="e" d="M0,0H2L462.486,638.142h-2Z" transform="translate(23.287 3977.445) rotate(-120)"/></g><g transform="translate(610 -2646)"><path class="e" d="M0,0H2L462.486,638.142h-2Z" transform="translate(23.287 3977.445) rotate(-120)"/></g><g transform="translate(620 -2646)"><path class="e" d="M0,0H2L462.486,638.142h-2Z" transform="translate(23.287 3977.445) rotate(-120)"/></g><g transform="translate(630 -2646)"><path class="e" d="M0,0H2L462.486,638.142h-2Z" transform="translate(23.287 3977.445) rotate(-120)"/></g><g transform="translate(640 -2646)"><path class="e" d="M0,0H2L462.486,638.142h-2Z" transform="translate(23.287 3977.445) rotate(-120)"/></g><g transform="translate(650 -2646)"><path class="e" d="M0,0H2L462.486,638.142h-2Z" transform="translate(23.287 3977.445) rotate(-120)"/></g><g transform="translate(660 -2646)"><path class="e" d="M0,0H2L462.486,638.142h-2Z" transform="translate(23.287 3977.445) rotate(-120)"/></g><g transform="translate(670 -2646)"><path class="e" d="M0,0H2L462.486,638.142h-2Z" transform="translate(23.287 3977.445) rotate(-120)"/></g><g transform="translate(680 -2646)"><path class="e" d="M0,0H2L462.486,638.142h-2Z" transform="translate(23.287 3977.445) rotate(-120)"/></g><g transform="translate(690 -2646)"><path class="e" d="M0,0H2L462.486,638.142h-2Z" transform="translate(23.287 3977.445) rotate(-120)"/></g><g transform="translate(700 -2646)"><path class="e" d="M0,0H2L462.486,638.142h-2Z" transform="translate(23.287 3977.445) rotate(-120)"/></g><g transform="translate(710 -2646)"><path class="e" d="M0,0H2L462.486,638.142h-2Z" transform="translate(23.287 3977.445) rotate(-120)"/></g><g transform="translate(720 -2646)"><path class="e" d="M0,0H2L462.486,638.142h-2Z" transform="translate(23.287 3977.445) rotate(-120)"/></g><g transform="translate(730 -2646)"><path class="e" d="M0,0H2L462.486,638.142h-2Z" transform="translate(23.287 3977.445) rotate(-120)"/></g><g transform="translate(740 -2646)"><path class="e" d="M0,0H2L462.486,638.142h-2Z" transform="translate(23.287 3977.445) rotate(-120)"/></g><g transform="translate(750 -2646)"><path class="e" d="M0,0H2L462.486,638.142h-2Z" transform="translate(23.287 3977.445) rotate(-120)"/></g><g transform="translate(760 -2646)"><path class="e" d="M0,0H2L462.486,638.142h-2Z" transform="translate(23.287 3977.445) rotate(-120)"/></g><g transform="translate(770 -2646)"><path class="e" d="M0,0H2L462.486,638.142h-2Z" transform="translate(23.287 3977.445) rotate(-120)"/></g><g transform="translate(780 -2646)"><path class="e" d="M0,0H2L462.486,638.142h-2Z" transform="translate(23.287 3977.445) rotate(-120)"/></g><g transform="translate(790 -2646)"><path class="e" d="M0,0H2L462.486,638.142h-2Z" transform="translate(23.287 3977.445) rotate(-120)"/></g><g transform="translate(800 -2646)"><path class="e" d="M0,0H2L462.486,638.142h-2Z" transform="translate(23.287 3977.445) rotate(-120)"/></g><g transform="translate(810 -2646)"><path class="e" d="M0,0H2L462.486,638.142h-2Z" transform="translate(23.287 3977.445) rotate(-120)"/></g><g transform="translate(820 -2646)"><path class="e" d="M0,0H2L462.486,638.142h-2Z" transform="translate(23.287 3977.445) rotate(-120)"/></g><g transform="translate(830 -2646)"><path class="e" d="M0,0H2L462.486,638.142h-2Z" transform="translate(23.287 3977.445) rotate(-120)"/></g><g transform="translate(840 -2646)"><path class="e" d="M0,0H2L462.486,638.142h-2Z" transform="translate(23.287 3977.445) rotate(-120)"/></g><g transform="translate(850 -2646)"><path class="e" d="M0,0H2L462.486,638.142h-2Z" transform="translate(23.287 3977.445) rotate(-120)"/></g><g transform="translate(860 -2646)"><path class="e" d="M0,0H2L462.486,638.142h-2Z" transform="translate(23.287 3977.445) rotate(-120)"/></g><g transform="translate(870 -2646)"><path class="e" d="M0,0H2L462.486,638.142h-2Z" transform="translate(23.287 3977.445) rotate(-120)"/></g><g transform="translate(880 -2646)"><path class="e" d="M0,0H2L462.486,638.142h-2Z" transform="translate(23.287 3977.445) rotate(-120)"/></g><g transform="translate(890 -2646)"><path class="e" d="M0,0H2L462.486,638.142h-2Z" transform="translate(23.287 3977.445) rotate(-120)"/></g><g transform="translate(900 -2646)"><path class="e" d="M0,0H2L462.486,638.142h-2Z" transform="translate(23.287 3977.445) rotate(-120)"/></g><g transform="translate(910 -2646)"><path class="e" d="M0,0H2L462.486,638.142h-2Z" transform="translate(23.287 3977.445) rotate(-120)"/></g><g transform="translate(920 -2646)"><path class="e" d="M0,0H2L462.486,638.142h-2Z" transform="translate(23.287 3977.445) rotate(-120)"/></g><g transform="translate(930 -2646)"><path class="e" d="M0,0H2L462.486,638.142h-2Z" transform="translate(23.287 3977.445) rotate(-120)"/></g><g transform="translate(940 -2646)"><path class="e" d="M0,0H2L462.486,638.142h-2Z" transform="translate(23.287 3977.445) rotate(-120)"/></g><g transform="translate(950 -2646)"><path class="e" d="M0,0H2L462.486,638.142h-2Z" transform="translate(23.287 3977.445) rotate(-120)"/></g><g transform="translate(960 -2646)"><path class="e" d="M0,0H2L462.486,638.142h-2Z" transform="translate(23.287 3977.445) rotate(-120)"/></g><g transform="translate(970 -2646)"><path class="e" d="M0,0H2L462.486,638.142h-2Z" transform="translate(23.287 3977.445) rotate(-120)"/></g><g transform="translate(980 -2646)"><path class="e" d="M0,0H2L462.486,638.142h-2Z" transform="translate(23.287 3977.445) rotate(-120)"/></g><g transform="translate(990 -2646)"><path class="e" d="M0,0H2L462.486,638.142h-2Z" transform="translate(23.287 3977.445) rotate(-120)"/></g><g transform="translate(1000 -2646)"><path class="e" d="M0,0H2L462.486,638.142h-2Z" transform="translate(23.287 3977.445) rotate(-120)"/></g><g transform="translate(1010 -2646)"><path class="e" d="M0,0H2L462.486,638.142h-2Z" transform="translate(23.287 3977.445) rotate(-120)"/></g><g transform="translate(1020 -2646)"><path class="e" d="M0,0H2L462.486,638.142h-2Z" transform="translate(23.287 3977.445) rotate(-120)"/></g></g></g></svg>